<mxfile host="Electron" agent="Mozilla/5.0 (X11; Linux x86_64) AppleWebKit/537.36 (KHTML, like Gecko) draw.io/24.7.17 Chrome/128.0.6613.36 Electron/32.0.1 Safari/537.36" version="24.7.17">
  <diagram name="第 1 页" id="iemj97DH2D_WhGkwpFbf">
    <mxGraphModel dx="1114" dy="835" grid="1" gridSize="10" guides="1" tooltips="1" connect="1" arrows="1" fold="1" page="1" pageScale="1" pageWidth="827" pageHeight="1169" math="0" shadow="0">
      <root>
        <mxCell id="0" />
        <mxCell id="1" parent="0" />
        <mxCell id="u90klc2od0r6vchqG8dV-1" value="&lt;font style=&quot;font-size: 26px;&quot;&gt;state in&lt;/font&gt;" style="rounded=0;whiteSpace=wrap;html=1;" parent="1" vertex="1">
          <mxGeometry x="70" y="70" width="120" height="60" as="geometry" />
        </mxCell>
        <mxCell id="u90klc2od0r6vchqG8dV-2" value="&lt;font style=&quot;font-size: 19px;&quot;&gt;mem protocol&lt;/font&gt;" style="rounded=0;whiteSpace=wrap;html=1;" parent="1" vertex="1">
          <mxGeometry x="680" y="70" width="120" height="60" as="geometry" />
        </mxCell>
        <mxCell id="38PQO6Y5TXRK7xI3_CnA-32" style="edgeStyle=orthogonalEdgeStyle;rounded=0;orthogonalLoop=1;jettySize=auto;html=1;exitX=0.75;exitY=1;exitDx=0;exitDy=0;entryX=0.5;entryY=0;entryDx=0;entryDy=0;" edge="1" parent="1" source="38PQO6Y5TXRK7xI3_CnA-1" target="38PQO6Y5TXRK7xI3_CnA-18">
          <mxGeometry relative="1" as="geometry">
            <Array as="points">
              <mxPoint x="160" y="440" />
              <mxPoint x="430" y="440" />
            </Array>
          </mxGeometry>
        </mxCell>
        <mxCell id="38PQO6Y5TXRK7xI3_CnA-1" value="&lt;font style=&quot;font-size: 24px;&quot;&gt;Instruction&lt;br&gt;Queue&lt;/font&gt;" style="rounded=1;whiteSpace=wrap;html=1;" vertex="1" parent="1">
          <mxGeometry x="70" y="200" width="120" height="210" as="geometry" />
        </mxCell>
        <mxCell id="38PQO6Y5TXRK7xI3_CnA-3" value="" style="endArrow=none;html=1;rounded=0;" edge="1" parent="1">
          <mxGeometry width="50" height="50" relative="1" as="geometry">
            <mxPoint x="40" y="160" as="sourcePoint" />
            <mxPoint x="800" y="160" as="targetPoint" />
          </mxGeometry>
        </mxCell>
        <mxCell id="38PQO6Y5TXRK7xI3_CnA-5" value="&lt;font style=&quot;font-size: 24px;&quot;&gt;Mem&lt;br&gt;Adapter&lt;/font&gt;" style="rounded=1;whiteSpace=wrap;html=1;" vertex="1" parent="1">
          <mxGeometry x="660" y="190" width="140" height="210" as="geometry" />
        </mxCell>
        <mxCell id="38PQO6Y5TXRK7xI3_CnA-6" value="prefetch&lt;div&gt;manager&lt;/div&gt;" style="rounded=1;whiteSpace=wrap;html=1;" vertex="1" parent="1">
          <mxGeometry x="210" y="310" width="80" height="100" as="geometry" />
        </mxCell>
        <mxCell id="38PQO6Y5TXRK7xI3_CnA-7" value="&lt;font style=&quot;font-size: 24px;&quot;&gt;Instruction&lt;br&gt;Cache&lt;br&gt;&lt;br&gt;&lt;br&gt;&lt;br&gt;&lt;/font&gt;" style="shape=corner;whiteSpace=wrap;html=1;direction=south;dx=90;dy=70;" vertex="1" parent="1">
          <mxGeometry x="210" y="200" width="170" height="210" as="geometry" />
        </mxCell>
        <mxCell id="38PQO6Y5TXRK7xI3_CnA-8" value="" style="endArrow=classic;startArrow=classic;html=1;rounded=0;entryX=0;entryY=0.25;entryDx=0;entryDy=0;exitX=0.2;exitY=0.012;exitDx=0;exitDy=0;exitPerimeter=0;" edge="1" parent="1" source="38PQO6Y5TXRK7xI3_CnA-7" target="38PQO6Y5TXRK7xI3_CnA-5">
          <mxGeometry width="50" height="50" relative="1" as="geometry">
            <mxPoint x="380" y="520" as="sourcePoint" />
            <mxPoint x="430" y="470" as="targetPoint" />
          </mxGeometry>
        </mxCell>
        <mxCell id="38PQO6Y5TXRK7xI3_CnA-9" value="" style="endArrow=classic;startArrow=classic;html=1;rounded=0;exitX=1;exitY=0.25;exitDx=0;exitDy=0;entryX=0.25;entryY=1;entryDx=0;entryDy=0;entryPerimeter=0;" edge="1" parent="1" source="38PQO6Y5TXRK7xI3_CnA-1" target="38PQO6Y5TXRK7xI3_CnA-7">
          <mxGeometry width="50" height="50" relative="1" as="geometry">
            <mxPoint x="380" y="520" as="sourcePoint" />
            <mxPoint x="430" y="470" as="targetPoint" />
          </mxGeometry>
        </mxCell>
        <mxCell id="38PQO6Y5TXRK7xI3_CnA-10" value="" style="endArrow=classic;startArrow=classic;html=1;rounded=0;exitX=1;exitY=0.75;exitDx=0;exitDy=0;" edge="1" parent="1" source="38PQO6Y5TXRK7xI3_CnA-1">
          <mxGeometry width="50" height="50" relative="1" as="geometry">
            <mxPoint x="380" y="520" as="sourcePoint" />
            <mxPoint x="210" y="358" as="targetPoint" />
          </mxGeometry>
        </mxCell>
        <mxCell id="38PQO6Y5TXRK7xI3_CnA-11" value="" style="endArrow=classic;startArrow=classic;html=1;rounded=0;" edge="1" parent="1" source="38PQO6Y5TXRK7xI3_CnA-6" target="38PQO6Y5TXRK7xI3_CnA-7">
          <mxGeometry width="50" height="50" relative="1" as="geometry">
            <mxPoint x="280" y="480" as="sourcePoint" />
            <mxPoint x="430" y="470" as="targetPoint" />
          </mxGeometry>
        </mxCell>
        <mxCell id="38PQO6Y5TXRK7xI3_CnA-13" value="" style="endArrow=classic;startArrow=classic;html=1;rounded=0;entryX=0.757;entryY=0.406;entryDx=0;entryDy=0;entryPerimeter=0;" edge="1" parent="1" source="38PQO6Y5TXRK7xI3_CnA-6" target="38PQO6Y5TXRK7xI3_CnA-7">
          <mxGeometry width="50" height="50" relative="1" as="geometry">
            <mxPoint x="290" y="470" as="sourcePoint" />
            <mxPoint x="430" y="470" as="targetPoint" />
          </mxGeometry>
        </mxCell>
        <mxCell id="38PQO6Y5TXRK7xI3_CnA-14" value="" style="endArrow=classic;startArrow=classic;html=1;rounded=0;entryX=0.5;entryY=1;entryDx=0;entryDy=0;" edge="1" parent="1" target="u90klc2od0r6vchqG8dV-2">
          <mxGeometry width="50" height="50" relative="1" as="geometry">
            <mxPoint x="740" y="190" as="sourcePoint" />
            <mxPoint x="430" y="470" as="targetPoint" />
          </mxGeometry>
        </mxCell>
        <mxCell id="38PQO6Y5TXRK7xI3_CnA-15" value="&lt;font style=&quot;font-size: 17px;&quot;&gt;Controller&lt;/font&gt;" style="rounded=1;whiteSpace=wrap;html=1;" vertex="1" parent="1">
          <mxGeometry x="210" y="450" width="120" height="60" as="geometry" />
        </mxCell>
        <mxCell id="38PQO6Y5TXRK7xI3_CnA-16" value="" style="curved=1;endArrow=classic;html=1;rounded=0;entryX=0;entryY=0.5;entryDx=0;entryDy=0;" edge="1" parent="1" source="u90klc2od0r6vchqG8dV-1" target="38PQO6Y5TXRK7xI3_CnA-15">
          <mxGeometry width="50" height="50" relative="1" as="geometry">
            <mxPoint x="380" y="520" as="sourcePoint" />
            <mxPoint x="430" y="470" as="targetPoint" />
            <Array as="points">
              <mxPoint x="40" y="200" />
              <mxPoint x="20" y="450" />
              <mxPoint x="90" y="490" />
            </Array>
          </mxGeometry>
        </mxCell>
        <mxCell id="38PQO6Y5TXRK7xI3_CnA-25" style="edgeStyle=orthogonalEdgeStyle;rounded=0;orthogonalLoop=1;jettySize=auto;html=1;entryX=0;entryY=0.5;entryDx=0;entryDy=0;" edge="1" parent="1" source="38PQO6Y5TXRK7xI3_CnA-17" target="38PQO6Y5TXRK7xI3_CnA-21">
          <mxGeometry relative="1" as="geometry" />
        </mxCell>
        <mxCell id="38PQO6Y5TXRK7xI3_CnA-35" style="edgeStyle=orthogonalEdgeStyle;rounded=0;orthogonalLoop=1;jettySize=auto;html=1;exitX=0.75;exitY=0;exitDx=0;exitDy=0;entryX=0.25;entryY=0;entryDx=0;entryDy=0;" edge="1" parent="1" source="38PQO6Y5TXRK7xI3_CnA-17" target="38PQO6Y5TXRK7xI3_CnA-19">
          <mxGeometry relative="1" as="geometry">
            <Array as="points">
              <mxPoint x="213" y="520" />
              <mxPoint x="665" y="520" />
            </Array>
          </mxGeometry>
        </mxCell>
        <mxCell id="38PQO6Y5TXRK7xI3_CnA-39" style="edgeStyle=orthogonalEdgeStyle;rounded=0;orthogonalLoop=1;jettySize=auto;html=1;exitX=1;exitY=0.75;exitDx=0;exitDy=0;entryX=0;entryY=0.75;entryDx=0;entryDy=0;" edge="1" parent="1">
          <mxGeometry relative="1" as="geometry">
            <mxPoint x="260" y="710" as="sourcePoint" />
            <mxPoint x="660" y="360" as="targetPoint" />
            <Array as="points">
              <mxPoint x="310" y="710" />
              <mxPoint x="310" y="530" />
              <mxPoint x="620" y="530" />
              <mxPoint x="620" y="360" />
            </Array>
          </mxGeometry>
        </mxCell>
        <mxCell id="38PQO6Y5TXRK7xI3_CnA-17" value="&lt;font style=&quot;font-size: 24px;&quot;&gt;Reorder&lt;br&gt;Buffer&lt;/font&gt;" style="rounded=1;whiteSpace=wrap;html=1;" vertex="1" parent="1">
          <mxGeometry x="70" y="540" width="190" height="210" as="geometry" />
        </mxCell>
        <mxCell id="38PQO6Y5TXRK7xI3_CnA-18" value="&lt;font style=&quot;font-size: 23px;&quot;&gt;Reserve&lt;br&gt;Station&lt;br&gt;(&amp;amp; LSQ)&lt;/font&gt;" style="rounded=1;whiteSpace=wrap;html=1;" vertex="1" parent="1">
          <mxGeometry x="330" y="540" width="200" height="210" as="geometry" />
        </mxCell>
        <mxCell id="38PQO6Y5TXRK7xI3_CnA-37" style="edgeStyle=orthogonalEdgeStyle;rounded=0;orthogonalLoop=1;jettySize=auto;html=1;exitX=0.25;exitY=0;exitDx=0;exitDy=0;entryX=0.75;entryY=0;entryDx=0;entryDy=0;" edge="1" parent="1" source="38PQO6Y5TXRK7xI3_CnA-19" target="38PQO6Y5TXRK7xI3_CnA-17">
          <mxGeometry relative="1" as="geometry" />
        </mxCell>
        <mxCell id="38PQO6Y5TXRK7xI3_CnA-19" value="&lt;font style=&quot;font-size: 20px;&quot;&gt;Mem OP&lt;br&gt;Launcher&lt;br&gt;&amp;amp; Collector&lt;/font&gt;" style="rounded=1;whiteSpace=wrap;html=1;" vertex="1" parent="1">
          <mxGeometry x="630" y="540" width="140" height="90" as="geometry" />
        </mxCell>
        <mxCell id="38PQO6Y5TXRK7xI3_CnA-36" style="edgeStyle=orthogonalEdgeStyle;rounded=0;orthogonalLoop=1;jettySize=auto;html=1;exitX=0.25;exitY=1;exitDx=0;exitDy=0;entryX=0.75;entryY=1;entryDx=0;entryDy=0;" edge="1" parent="1" source="38PQO6Y5TXRK7xI3_CnA-20" target="38PQO6Y5TXRK7xI3_CnA-17">
          <mxGeometry relative="1" as="geometry" />
        </mxCell>
        <mxCell id="38PQO6Y5TXRK7xI3_CnA-20" value="&lt;font style=&quot;font-size: 23px;&quot;&gt;ALU&lt;/font&gt;" style="rounded=1;whiteSpace=wrap;html=1;" vertex="1" parent="1">
          <mxGeometry x="630" y="660" width="140" height="90" as="geometry" />
        </mxCell>
        <mxCell id="38PQO6Y5TXRK7xI3_CnA-21" value="&lt;font style=&quot;font-size: 43px;&quot;&gt;Register File&lt;/font&gt;" style="rounded=1;whiteSpace=wrap;html=1;" vertex="1" parent="1">
          <mxGeometry x="235" y="790" width="415" height="100" as="geometry" />
        </mxCell>
        <mxCell id="38PQO6Y5TXRK7xI3_CnA-22" value="" style="endArrow=classic;startArrow=classic;html=1;rounded=0;entryX=0.5;entryY=1;entryDx=0;entryDy=0;" edge="1" parent="1" target="38PQO6Y5TXRK7xI3_CnA-5">
          <mxGeometry width="50" height="50" relative="1" as="geometry">
            <mxPoint x="730" y="540" as="sourcePoint" />
            <mxPoint x="430" y="480" as="targetPoint" />
          </mxGeometry>
        </mxCell>
        <mxCell id="38PQO6Y5TXRK7xI3_CnA-29" value="" style="endArrow=classic;html=1;rounded=0;exitX=0.484;exitY=-0.02;exitDx=0;exitDy=0;exitPerimeter=0;" edge="1" parent="1" source="38PQO6Y5TXRK7xI3_CnA-21">
          <mxGeometry width="50" height="50" relative="1" as="geometry">
            <mxPoint x="380" y="530" as="sourcePoint" />
            <mxPoint x="436" y="750" as="targetPoint" />
          </mxGeometry>
        </mxCell>
        <mxCell id="38PQO6Y5TXRK7xI3_CnA-31" value="" style="endArrow=classic;html=1;rounded=0;exitX=0.5;exitY=1;exitDx=0;exitDy=0;entryX=0.316;entryY=0;entryDx=0;entryDy=0;entryPerimeter=0;" edge="1" parent="1" source="38PQO6Y5TXRK7xI3_CnA-1" target="38PQO6Y5TXRK7xI3_CnA-17">
          <mxGeometry width="50" height="50" relative="1" as="geometry">
            <mxPoint x="380" y="530" as="sourcePoint" />
            <mxPoint x="430" y="480" as="targetPoint" />
          </mxGeometry>
        </mxCell>
        <mxCell id="38PQO6Y5TXRK7xI3_CnA-33" value="" style="endArrow=classic;startArrow=classic;html=1;rounded=0;exitX=1;exitY=0.25;exitDx=0;exitDy=0;" edge="1" parent="1" source="38PQO6Y5TXRK7xI3_CnA-18">
          <mxGeometry width="50" height="50" relative="1" as="geometry">
            <mxPoint x="380" y="530" as="sourcePoint" />
            <mxPoint x="630" y="592" as="targetPoint" />
          </mxGeometry>
        </mxCell>
        <mxCell id="38PQO6Y5TXRK7xI3_CnA-34" value="" style="endArrow=classic;startArrow=classic;html=1;rounded=0;exitX=1;exitY=0.75;exitDx=0;exitDy=0;entryX=0.007;entryY=0.411;entryDx=0;entryDy=0;entryPerimeter=0;" edge="1" parent="1" source="38PQO6Y5TXRK7xI3_CnA-18" target="38PQO6Y5TXRK7xI3_CnA-20">
          <mxGeometry width="50" height="50" relative="1" as="geometry">
            <mxPoint x="380" y="530" as="sourcePoint" />
            <mxPoint x="430" y="480" as="targetPoint" />
          </mxGeometry>
        </mxCell>
        <mxCell id="38PQO6Y5TXRK7xI3_CnA-38" style="edgeStyle=orthogonalEdgeStyle;rounded=0;orthogonalLoop=1;jettySize=auto;html=1;exitX=1;exitY=0.5;exitDx=0;exitDy=0;entryX=0.583;entryY=1;entryDx=0;entryDy=0;entryPerimeter=0;" edge="1" parent="1" source="38PQO6Y5TXRK7xI3_CnA-17" target="38PQO6Y5TXRK7xI3_CnA-15">
          <mxGeometry relative="1" as="geometry" />
        </mxCell>
      </root>
    </mxGraphModel>
  </diagram>
</mxfile>
